<?xml version="1.0" encoding="UTF-8"?>
<svg xmlns="http://www.w3.org/2000/svg" viewBox="0 0 800 800" width="800" height="800">
  <title>Golden Ratio (preview)</title>
  <desc>phi=1.618033988749895 | palette=Forest | points=568 | layers=3 | seed=0xb4a74d4ddbc62c1a...</desc>
  <!-- Background -->
  <rect width="800" height="800" fill="#0D1117"/>
  <!-- Phyllotaxis spiral (567 points, 3 layers) -->
  <g id="spiral">
    <circle cx="379.49" cy="384.91" r="0.72" fill="#161b22" opacity="0.403"/>
    <circle cx="435.80" cy="396.14" r="0.73" fill="#161b22" opacity="0.406"/>
    <circle cx="370.86" cy="433.10" r="0.74" fill="#161b22" opacity="0.410"/>
    <circle cx="398.99" cy="349.09" r="0.75" fill="#161b22" opacity="0.413"/>
    <circle cx="439.28" cy="441.21" r="0.76" fill="#161b22" opacity="0.416"/>
    <circle cx="337.78" cy="395.78" r="0.77" fill="#161b22" opacity="0.419"/>
    <circle cx="452.63" cy="357.97" r="0.78" fill="#161b22" opacity="0.422"/>
    <circle cx="388.87" cy="471.14" r="0.79" fill="#161b22" opacity="0.425"/>
    <circle cx="357.74" cy="336.38" r="0.80" fill="#161b22" opacity="0.429"/>
    <circle cx="478.15" cy="419.35" r="0.81" fill="#161b22" opacity="0.432"/>
    <circle cx="325.85" cy="440.40" r="0.83" fill="#161b22" opacity="0.435"/>
    <circle cx="428.60" cy="316.58" r="0.84" fill="#161b22" opacity="0.438"/>
    <circle cx="436.70" cy="484.14" r="0.85" fill="#161b22" opacity="0.441"/>
    <circle cx="312.94" cy="361.34" r="0.86" fill="#161b22" opacity="0.444"/>
    <circle cx="493.48" cy="368.63" r="0.87" fill="#161b22" opacity="0.448"/>
    <circle cx="350.70" cy="489.10" r="0.88" fill="#161b22" opacity="0.451"/>
    <circle cx="375.43" cy="297.95" r="0.89" fill="#161b22" opacity="0.454"/>
    <circle cx="489.58" cy="460.36" r="0.90" fill="#161b22" opacity="0.457"/>
    <circle cx="290.25" cy="416.44" r="0.91" fill="#161b22" opacity="0.460"/>
    <circle cx="471.63" cy="311.50" r="0.92" fill="#161b22" opacity="0.463"/>
    <circle cx="407.13" cy="516.45" r="0.93" fill="#161b22" opacity="0.467"/>
    <circle cx="314.11" cy="317.04" r="0.95" fill="#161b22" opacity="0.470"/>
    <circle cx="522.05" cy="403.22" r="0.96" fill="#161b22" opacity="0.473"/>
    <circle cx="305.84" cy="481.79" r="0.97" fill="#161b22" opacity="0.476"/>
    <circle cx="414.47" cy="273.53" r="0.98" fill="#161b22" opacity="0.479"/>
    <circle cx="476.24" cy="505.07" r="0.99" fill="#161b22" opacity="0.483"/>
    <circle cx="270.39" cy="373.53" r="1.00" fill="#161b22" opacity="0.486"/>
    <circle cx="515.53" cy="330.72" r="1.01" fill="#161b22" opacity="0.489"/>
    <circle cx="360.93" cy="531.41" r="1.02" fill="#161b22" opacity="0.492"/>
    <circle cx="339.02" cy="274.60" r="1.03" fill="#161b22" opacity="0.495"/>
    <circle cx="531.82" cy="452.12" r="1.04" fill="#161b22" opacity="0.498"/>
    <circle cx="265.48" cy="451.42" r="1.05" fill="#161b22" opacity="0.502"/>
    <circle cx="465.46" cy="269.22" r="1.07" fill="#161b22" opacity="0.505"/>
    <circle cx="440.68" cy="542.77" r="1.08" fill="#161b22" opacity="0.508"/>
    <circle cx="271.72" cy="321.07" r="1.09" fill="#161b22" opacity="0.511"/>
    <circle cx="550.00" cy="371.15" r="1.10" fill="#161b22" opacity="0.514"/>
    <circle cx="307.63" cy="524.29" r="1.11" fill="#161b22" opacity="0.517"/>
    <circle cx="383.94" cy="243.89" r="1.12" fill="#161b22" opacity="0.521"/>
    <circle cx="518.83" cy="505.63" r="1.13" fill="#161b22" opacity="0.524"/>
    <circle cx="239.00" cy="402.41" r="1.14" fill="#161b22" opacity="0.527"/>
    <circle cx="518.54" cy="288.10" r="1.15" fill="#161b22" opacity="0.530"/>
    <circle cx="388.03" cy="564.56" r="1.16" fill="#161b22" opacity="0.533"/>
    <circle cx="296.46" cy="269.05" r="1.17" fill="#161b22" opacity="0.537"/>
    <circle cx="566.71" cy="426.93" r="1.19" fill="#161b22" opacity="0.540"/>
    <circle cx="257.29" cy="493.81" r="1.20" fill="#161b22" opacity="0.543"/>
    <circle cx="442.33" cy="232.60" r="1.21" fill="#161b22" opacity="0.546"/>
    <circle cx="482.75" cy="553.67" r="1.22" fill="#161b22" opacity="0.549"/>
    <circle cx="233.43" cy="341.98" r="1.23" fill="#30A14E" opacity="0.552"/>
    <circle cx="563.69" cy="329.55" r="1.24" fill="#30A14E" opacity="0.556"/>
    <circle cx="326.15" cy="564.17" r="1.25" fill="#30A14E" opacity="0.559"/>
    <circle cx="343.00" cy="227.35" r="1.26" fill="#30A14E" opacity="0.562"/>
    <circle cx="560.20" cy="489.67" r="1.27" fill="#30A14E" opacity="0.565"/>
    <circle cx="219.60" cy="442.50" r="1.28" fill="#30A14E" opacity="0.568"/>
    <circle cx="505.30" cy="245.36" r="1.29" fill="#30A14E" opacity="0.571"/>
    <circle cx="427.06" cy="586.86" r="1.30" fill="#30A14E" opacity="0.575"/>
    <circle cx="252.50" cy="279.41" r="1.32" fill="#30A14E" opacity="0.578"/>
    <circle cx="591.91" cy="389.19" r="1.33" fill="#30A14E" opacity="0.581"/>
    <circle cx="264.63" cy="538.80" r="1.34" fill="#30A14E" opacity="0.584"/>
    <circle cx="406.11" cy="204.54" r="1.35" fill="#30A14E" opacity="0.587"/>
    <circle cx="528.60" cy="549.50" r="1.36" fill="#30A14E" opacity="0.590"/>
    <circle cx="202.56" cy="376.43" r="1.37" fill="#30A14E" opacity="0.594"/>
    <circle cx="562.82" cy="283.06" r="1.38" fill="#30A14E" opacity="0.597"/>
    <circle cx="358.60" cy="597.79" r="1.39" fill="#30A14E" opacity="0.600"/>
    <circle cx="296.11" cy="224.82" r="1.40" fill="#30A14E" opacity="0.603"/>
    <circle cx="596.46" cy="459.45" r="1.41" fill="#30A14E" opacity="0.606"/>
    <circle cx="213.56" cy="489.55" r="1.42" fill="#30A14E" opacity="0.610"/>
    <circle cx="477.57" cy="206.59" r="1.44" fill="#30A14E" opacity="0.613"/>
    <circle cx="474.00" cy="596.46" r="1.45" fill="#30A14E" opacity="0.616"/>
    <circle cx="211.35" cy="304.42" r="1.46" fill="#30A14E" opacity="0.619"/>
    <circle cx="605.13" cy="342.63" r="1.47" fill="#30A14E" opacity="0.622"/>
    <circle cx="286.69" cy="582.15" r="1.48" fill="#30A14E" opacity="0.625"/>
    <circle cx="360.23" cy="187.67" r="1.49" fill="#30A14E" opacity="0.629"/>
    <circle cx="573.95" cy="530.60" r="1.50" fill="#30A14E" opacity="0.632"/>
    <circle cx="182.04" cy="421.34" r="1.51" fill="#30A14E" opacity="0.635"/>
    <circle cx="547.29" cy="235.93" r="1.52" fill="#30A14E" opacity="0.638"/>
    <circle cx="402.24" cy="621.93" r="1.53" fill="#30A14E" opacity="0.641"/>
    <circle cx="247.44" cy="236.80" r="1.54" fill="#30A14E" opacity="0.644"/>
    <circle cx="624.17" cy="417.40" r="1.56" fill="#30A14E" opacity="0.648"/>
    <circle cx="221.82" cy="539.48" r="1.57" fill="#30A14E" opacity="0.651"/>
    <circle cx="437.40" cy="175.38" r="1.58" fill="#30A14E" opacity="0.654"/>
    <circle cx="524.92" cy="592.08" r="1.59" fill="#30A14E" opacity="0.657"/>
    <circle cx="176.77" cy="342.40" r="1.60" fill="#30A14E" opacity="0.660"/>
    <circle cx="604.75" cy="291.03" r="1.61" fill="#30A14E" opacity="0.663"/>
    <circle cx="322.17" cy="619.97" r="1.62" fill="#30A14E" opacity="0.667"/>
    <circle cx="308.26" cy="183.95" r="1.63" fill="#30A14E" opacity="0.670"/>
    <circle cx="614.84" cy="497.91" r="1.64" fill="#30A14E" opacity="0.673"/>
    <circle cx="174.15" cy="473.35" r="1.65" fill="#30A14E" opacity="0.676"/>
    <circle cx="517.66" cy="192.17" r="1.66" fill="#30A14E" opacity="0.679"/>
    <circle cx="453.93" cy="634.04" r="1.68" fill="#30A14E" opacity="0.683"/>
    <circle cx="201.03" cy="263.09" r="1.69" fill="#30A14E" opacity="0.686"/>
    <circle cx="640.52" cy="366.37" r="1.70" fill="#30A14E" opacity="0.689"/>
    <circle cx="244.52" cy="588.30" r="1.71" fill="#30A14E" opacity="0.692"/>
    <circle cx="387.39" cy="154.81" r="1.72" fill="#30A14E" opacity="0.695"/>
    <circle cx="575.86" cy="573.20" r="1.73" fill="#30A14E" opacity="0.698"/>
    <circle cx="152.02" cy="391.04" r="1.74" fill="#3FB950" opacity="0.702"/>
    <circle cx="589.90" cy="238.26" r="1.75" fill="#3FB950" opacity="0.705"/>
    <circle cx="369.07" cy="648.82" r="1.76" fill="#3FB950" opacity="0.708"/>
    <circle cx="253.98" cy="194.58" r="1.77" fill="#3FB950" opacity="0.711"/>
    <circle cx="647.68" cy="453.11" r="1.78" fill="#3FB950" opacity="0.714"/>
    <circle cx="180.39" cy="528.79" r="1.79" fill="#3FB950" opacity="0.717"/>
    <circle cx="475.31" cy="155.48" r="1.81" fill="#3FB950" opacity="0.721"/>
    <circle cx="510.19" cy="632.31" r="1.82" fill="#3FB950" opacity="0.724"/>
    <circle cx="160.66" cy="302.66" r="1.83" fill="#3FB950" opacity="0.727"/>
    <circle cx="643.41" cy="309.67" r="1.84" fill="#3FB950" opacity="0.730"/>
    <circle cx="280.96" cy="632.13" r="1.85" fill="#3FB950" opacity="0.733"/>
    <circle cx="330.64" cy="147.23" r="1.86" fill="#3FB950" opacity="0.737"/>
    <circle cx="622.93" cy="540.19" r="1.87" fill="#3FB950" opacity="0.740"/>
    <circle cx="139.71" cy="447.44" r="1.88" fill="#3FB950" opacity="0.743"/>
    <circle cx="560.62" cy="188.23" r="1.89" fill="#3FB950" opacity="0.746"/>
    <circle cx="424.72" cy="665.87" r="1.90" fill="#3FB950" opacity="0.749"/>
    <circle cx="201.28" cy="219.85" r="1.91" fill="#3FB950" opacity="0.752"/>
    <circle cx="669.43" cy="398.60" r="1.93" fill="#3FB950" opacity="0.756"/>
    <circle cx="201.40" cy="583.84" r="1.94" fill="#3FB950" opacity="0.759"/>
    <circle cx="422.36" cy="129.10" r="1.95" fill="#3FB950" opacity="0.762"/>
    <circle cx="567.24" cy="615.80" r="1.96" fill="#3FB950" opacity="0.765"/>
    <circle cx="129.75" cy="353.64" r="1.97" fill="#3FB950" opacity="0.768"/>
    <circle cx="631.58" cy="250.99" r="1.98" fill="#3FB950" opacity="0.771"/>
    <circle cx="329.59" cy="667.44" r="1.99" fill="#3FB950" opacity="0.775"/>
    <circle cx="270.72" cy="154.20" r="2.00" fill="#3FB950" opacity="0.778"/>
    <circle cx="662.46" cy="494.31" r="2.01" fill="#3FB950" opacity="0.781"/>
    <circle cx="141.70" cy="508.20" r="2.02" fill="#3FB950" opacity="0.784"/>
    <circle cx="517.86" cy="144.69" r="2.03" fill="#3FB950" opacity="0.787"/>
    <circle cx="485.90" cy="668.97" r="2.05" fill="#3FB950" opacity="0.790"/>
    <circle cx="153.98" cy="259.13" r="2.06" fill="#3FB950" opacity="0.794"/>
    <circle cx="677.68" cy="337.44" r="2.07" fill="#3FB950" opacity="0.797"/>
    <circle cx="236.86" cy="634.63" r="2.08" fill="#3FB950" opacity="0.800"/>
    <circle cx="361.65" cy="115.67" r="2.09" fill="#3FB950" opacity="0.803"/>
    <circle cx="621.21" cy="584.48" r="2.10" fill="#3FB950" opacity="0.806"/>
    <circle cx="111.16" cy="413.45" r="2.11" fill="#3FB950" opacity="0.810"/>
    <circle cx="604.69" cy="194.18" r="2.12" fill="#3FB950" opacity="0.813"/>
    <circle cx="388.05" cy="691.14" r="2.13" fill="#3FB950" opacity="0.816"/>
    <circle cx="211.43" cy="176.40" r="2.14" fill="#3FB950" opacity="0.819"/>
    <circle cx="691.18" cy="437.64" r="2.15" fill="#3FB950" opacity="0.822"/>
    <circle cx="158.97" cy="569.57" r="2.17" fill="#3FB950" opacity="0.825"/>
    <circle cx="463.42" cy="111.08" r="2.18" fill="#3FB950" opacity="0.829"/>
    <circle cx="548.95" cy="656.83" r="2.19" fill="#3FB950" opacity="0.832"/>
    <circle cx="115.64" cy="310.91" r="2.20" fill="#3FB950" opacity="0.835"/>
    <circle cx="670.84" cy="273.15" r="2.21" fill="#3FB950" opacity="0.838"/>
    <circle cx="285.56" cy="677.48" r="2.22" fill="#3FB950" opacity="0.841"/>
    <circle cx="296.58" cy="117.08" r="2.23" fill="#3FB950" opacity="0.844"/>
    <circle cx="668.32" cy="539.25" r="2.24" fill="#3FB950" opacity="0.848"/>
    <circle cx="107.05" cy="478.85" r="2.25" fill="#58d68d" opacity="0.851"/>
    <circle cx="563.32" cy="143.07" r="2.26" fill="#58d68d" opacity="0.854"/>
    <circle cx="453.31" cy="700.82" r="2.27" fill="#58d68d" opacity="0.857"/>
    <circle cx="156.65" cy="213.55" r="2.29" fill="#58d68d" opacity="0.860"/>
    <circle cx="706.43" cy="373.01" r="2.30" fill="#58d68d" opacity="0.863"/>
    <circle cx="191.57" cy="627.67" r="2.31" fill="#58d68d" opacity="0.867"/>
    <circle cx="399.90" cy="90.28" r="2.32" fill="#58d68d" opacity="0.870"/>
    <circle cx="609.99" cy="629.08" r="2.33" fill="#58d68d" opacity="0.873"/>
    <circle cx="89.38" cy="372.84" r="2.34" fill="#58d68d" opacity="0.876"/>
    <circle cx="648.21" cy="209.58" r="2.35" fill="#58d68d" opacity="0.879"/>
    <circle cx="345.43" cy="709.10" r="2.36" fill="#58d68d" opacity="0.883"/>
    <circle cx="230.90" cy="134.35" r="2.37" fill="#58d68d" opacity="0.886"/>
    <circle cx="705.13" cy="481.92" r="2.38" fill="#58d68d" opacity="0.889"/>
    <circle cx="118.76" cy="546.18" r="2.39" fill="#58d68d" opacity="0.892"/>
    <circle cx="508.99" cy="101.28" r="2.40" fill="#58d68d" opacity="0.895"/>
    <circle cx="521.81" cy="694.83" r="2.42" fill="#58d68d" opacity="0.898"/>
    <circle cx="110.11" cy="264.46" r="2.43" fill="#58d68d" opacity="0.902"/>
    <circle cx="706.28" cy="303.83" r="2.44" fill="#58d68d" opacity="0.905"/>
    <circle cx="238.62" cy="678.68" r="2.45" fill="#58d68d" opacity="0.908"/>
    <circle cx="330.54" cy="84.52" r="2.46" fill="#58d68d" opacity="0.911"/>
    <circle cx="665.14" cy="586.28" r="2.47" fill="#58d68d" opacity="0.914"/>
    <circle cx="77.67" cy="441.87" r="2.48" fill="#58d68d" opacity="0.917"/>
    <circle cx="610.03" cy="150.63" r="2.49" fill="#58d68d" opacity="0.921"/>
    <circle cx="413.61" cy="726.74" r="2.50" fill="#58d68d" opacity="0.924"/>
    <circle cx="168.55" cy="167.57" r="2.51" fill="#58d68d" opacity="0.927"/>
    <circle cx="728.65" cy="415.09" r="2.52" fill="#58d68d" opacity="0.930"/>
    <circle cx="146.71" cy="611.50" r="2.54" fill="#58d68d" opacity="0.933"/>
    <circle cx="444.03" cy="71.98" r="2.55" fill="#58d68d" opacity="0.937"/>
    <circle cx="589.67" cy="672.42" r="2.56" fill="#58d68d" opacity="0.940"/>
    <circle cx="75.18" cy="327.03" r="2.57" fill="#58d68d" opacity="0.943"/>
    <circle cx="689.64" cy="233.91" r="2.58" fill="#58d68d" opacity="0.946"/>
    <circle cx="298.33" cy="719.05" r="2.59" fill="#58d68d" opacity="0.949"/>
    <circle cx="259.05" cy="95.19" r="2.60" fill="#58d68d" opacity="0.952"/>
    <circle cx="710.72" cy="529.92" r="2.61" fill="#58d68d" opacity="0.956"/>
    <circle cx="82.22" cy="514.41" r="2.62" fill="#58d68d" opacity="0.959"/>
    <circle cx="557.48" cy="100.13" r="2.63" fill="#58d68d" opacity="0.962"/>
    <circle cx="486.68" cy="728.42" r="2.64" fill="#58d68d" opacity="0.965"/>
    <circle cx="113.44" cy="215.87" r="2.66" fill="#58d68d" opacity="0.968"/>
    <circle cx="736.61" cy="342.04" r="2.67" fill="#58d68d" opacity="0.971"/>
    <circle cx="190.36" cy="670.86" r="2.68" fill="#58d68d" opacity="0.975"/>
    <circle cx="371.53" cy="57.72" r="2.69" fill="#58d68d" opacity="0.978"/>
    <circle cx="652.89" cy="633.80" r="2.70" fill="#58d68d" opacity="0.981"/>
    <circle cx="54.66" cy="398.42" r="2.71" fill="#58d68d" opacity="0.984"/>
    <circle cx="656.40" cy="167.26" r="2.72" fill="#58d68d" opacity="0.987"/>
    <circle cx="368.07" cy="745.74" r="2.73" fill="#58d68d" opacity="0.990"/>
    <circle cx="189.44" cy="122.75" r="2.74" fill="#58d68d" opacity="0.994"/>
    <circle cx="743.46" cy="462.37" r="2.75" fill="#58d68d" opacity="0.997"/>
    <circle cx="103.83" cy="586.51" r="2.76" fill="#58d68d" opacity="1.000"/>
    <circle cx="403.94" cy="419.98" r="0.59" fill="#161b22" opacity="0.403"/>
    <circle cx="376.80" cy="382.93" r="0.60" fill="#161b22" opacity="0.406"/>
    <circle cx="435.07" cy="396.22" r="0.61" fill="#161b22" opacity="0.410"/>
    <circle cx="373.09" cy="430.58" r="0.61" fill="#161b22" opacity="0.413"/>
    <circle cx="399.10" cy="354.47" r="0.62" fill="#161b22" opacity="0.416"/>
    <circle cx="434.42" cy="436.11" r="0.63" fill="#161b22" opacity="0.419"/>
    <circle cx="346.24" cy="396.35" r="0.64" fill="#161b22" opacity="0.422"/>
    <circle cx="445.01" cy="364.05" r="0.65" fill="#161b22" opacity="0.425"/>
    <circle cx="390.55" cy="460.37" r="0.66" fill="#161b22" opacity="0.429"/>
    <circle cx="364.36" cy="346.35" r="0.67" fill="#161b22" opacity="0.432"/>
    <circle cx="465.57" cy="416.24" r="0.68" fill="#161b22" opacity="0.435"/>
    <circle cx="338.04" cy="433.75" r="0.69" fill="#161b22" opacity="0.438"/>
    <circle cx="423.82" cy="330.54" r="0.69" fill="#161b22" opacity="0.441"/>
    <circle cx="430.47" cy="469.85" r="0.70" fill="#161b22" opacity="0.444"/>
    <circle cx="327.91" cy="367.99" r="0.71" fill="#161b22" opacity="0.448"/>
    <circle cx="477.24" cy="374.08" r="0.72" fill="#161b22" opacity="0.451"/>
    <circle cx="359.34" cy="473.48" r="0.73" fill="#161b22" opacity="0.454"/>
    <circle cx="379.78" cy="315.99" r="0.74" fill="#161b22" opacity="0.457"/>
    <circle cx="473.62" cy="449.61" r="0.75" fill="#161b22" opacity="0.460"/>
    <circle cx="309.92" cy="413.49" r="0.76" fill="#161b22" opacity="0.463"/>
    <circle cx="458.72" cy="327.45" r="0.77" fill="#161b22" opacity="0.467"/>
    <circle cx="405.84" cy="495.35" r="0.78" fill="#161b22" opacity="0.470"/>
    <circle cx="329.74" cy="332.14" r="0.78" fill="#161b22" opacity="0.473"/>
    <circle cx="499.74" cy="402.63" r="0.79" fill="#161b22" opacity="0.476"/>
    <circle cx="323.12" cy="466.78" r="0.80" fill="#161b22" opacity="0.479"/>
    <circle cx="411.80" cy="296.82" r="0.81" fill="#161b22" opacity="0.483"/>
    <circle cx="462.15" cy="485.66" r="0.82" fill="#161b22" opacity="0.486"/>
    <circle cx="294.41" cy="378.44" r="0.83" fill="#161b22" opacity="0.489"/>
    <circle cx="494.06" cy="343.59" r="0.84" fill="#161b22" opacity="0.492"/>
    <circle cx="368.21" cy="506.93" r="0.85" fill="#161b22" opacity="0.495"/>
    <circle cx="350.41" cy="298.02" r="0.86" fill="#161b22" opacity="0.498"/>
    <circle cx="507.14" cy="442.36" r="0.86" fill="#161b22" opacity="0.502"/>
    <circle cx="290.71" cy="441.77" r="0.87" fill="#161b22" opacity="0.505"/>
    <circle cx="453.16" cy="293.80" r="0.88" fill="#161b22" opacity="0.508"/>
    <circle cx="433.02" cy="515.88" r="0.89" fill="#161b22" opacity="0.511"/>
    <circle cx="295.92" cy="335.96" r="0.90" fill="#161b22" opacity="0.514"/>
    <circle cx="521.66" cy="376.60" r="0.91" fill="#161b22" opacity="0.517"/>
    <circle cx="325.11" cy="500.77" r="0.92" fill="#161b22" opacity="0.521"/>
    <circle cx="386.99" cy="273.48" r="0.93" fill="#161b22" opacity="0.524"/>
    <circle cx="496.27" cy="485.58" r="0.94" fill="#161b22" opacity="0.527"/>
    <circle cx="269.60" cy="401.95" r="0.94" fill="#161b22" opacity="0.530"/>
    <circle cx="495.98" cy="309.39" r="0.95" fill="#161b22" opacity="0.533"/>
    <circle cx="390.31" cy="533.20" r="0.96" fill="#161b22" opacity="0.537"/>
    <circle cx="316.21" cy="294.03" r="0.97" fill="#161b22" opacity="0.540"/>
    <circle cx="534.88" cy="421.78" r="0.98" fill="#161b22" opacity="0.543"/>
    <circle cx="284.57" cy="475.88" r="0.99" fill="#161b22" opacity="0.546"/>
    <circle cx="434.23" cy="264.63" r="1.00" fill="#161b22" opacity="0.549"/>
    <circle cx="466.90" cy="524.24" r="1.01" fill="#30A14E" opacity="0.552"/>
    <circle cx="265.37" cy="353.10" r="1.02" fill="#30A14E" opacity="0.556"/>
    <circle cx="532.28" cy="343.07" r="1.03" fill="#30A14E" opacity="0.559"/>
    <circle cx="340.33" cy="532.65" r="1.03" fill="#30A14E" opacity="0.562"/>
    <circle cx="353.95" cy="260.54" r="1.04" fill="#30A14E" opacity="0.565"/>
    <circle cx="529.39" cy="472.42" r="1.05" fill="#30A14E" opacity="0.568"/>
    <circle cx="254.32" cy="434.32" r="1.06" fill="#30A14E" opacity="0.571"/>
    <circle cx="485.01" cy="275.15" r="1.07" fill="#30A14E" opacity="0.575"/>
    <circle cx="421.84" cy="550.84" r="1.08" fill="#30A14E" opacity="0.578"/>
    <circle cx="280.95" cy="302.67" r="1.09" fill="#30A14E" opacity="0.581"/>
    <circle cx="554.86" cy="391.28" r="1.10" fill="#30A14E" opacity="0.584"/>
    <circle cx="290.77" cy="512.00" r="1.11" fill="#30A14E" opacity="0.587"/>
    <circle cx="404.93" cy="242.31" r="1.11" fill="#30A14E" opacity="0.590"/>
    <circle cx="503.73" cy="520.60" r="1.12" fill="#30A14E" opacity="0.594"/>
    <circle cx="240.76" cy="380.99" r="1.13" fill="#30A14E" opacity="0.597"/>
    <circle cx="531.30" cy="305.70" r="1.14" fill="#30A14E" opacity="0.600"/>
    <circle cx="366.62" cy="559.48" r="1.15" fill="#30A14E" opacity="0.603"/>
    <circle cx="316.24" cy="258.77" r="1.16" fill="#30A14E" opacity="0.606"/>
    <circle cx="558.37" cy="447.93" r="1.17" fill="#30A14E" opacity="0.610"/>
    <circle cx="249.72" cy="472.18" r="1.18" fill="#30A14E" opacity="0.613"/>
    <circle cx="462.52" cy="244.12" r="1.19" fill="#30A14E" opacity="0.616"/>
    <circle cx="459.63" cy="558.32" r="1.20" fill="#30A14E" opacity="0.619"/>
    <circle cx="247.99" cy="322.99" r="1.20" fill="#30A14E" opacity="0.622"/>
    <circle cx="565.27" cy="353.78" r="1.21" fill="#30A14E" opacity="0.625"/>
    <circle cx="308.72" cy="546.74" r="1.22" fill="#30A14E" opacity="0.629"/>
    <circle cx="367.97" cy="228.96" r="1.23" fill="#30A14E" opacity="0.632"/>
    <circle cx="540.11" cy="505.19" r="1.24" fill="#30A14E" opacity="0.635"/>
    <circle cx="224.46" cy="417.19" r="1.25" fill="#30A14E" opacity="0.638"/>
    <circle cx="518.61" cy="267.87" r="1.26" fill="#30A14E" opacity="0.641"/>
    <circle cx="401.80" cy="578.71" r="1.27" fill="#30A14E" opacity="0.644"/>
    <circle cx="277.17" cy="268.60" r="1.28" fill="#30A14E" opacity="0.648"/>
    <circle cx="580.48" cy="414.01" r="1.28" fill="#30A14E" opacity="0.651"/>
    <circle cx="256.55" cy="512.29" r="1.29" fill="#30A14E" opacity="0.654"/>
    <circle cx="430.11" cy="219.19" r="1.30" fill="#30A14E" opacity="0.657"/>
    <circle cx="500.55" cy="554.61" r="1.31" fill="#30A14E" opacity="0.660"/>
    <circle cx="220.33" cy="353.64" r="1.32" fill="#30A14E" opacity="0.663"/>
    <circle cx="564.78" cy="312.30" r="1.33" fill="#30A14E" opacity="0.667"/>
    <circle cx="337.37" cy="577.02" r="1.34" fill="#30A14E" opacity="0.670"/>
    <circle cx="326.18" cy="226.15" r="1.35" fill="#30A14E" opacity="0.673"/>
    <circle cx="572.87" cy="478.78" r="1.36" fill="#30A14E" opacity="0.676"/>
    <circle cx="218.28" cy="459.01" r="1.36" fill="#30A14E" opacity="0.679"/>
    <circle cx="494.66" cy="232.79" r="1.37" fill="#30A14E" opacity="0.683"/>
    <circle cx="443.39" cy="588.28" r="1.38" fill="#30A14E" opacity="0.686"/>
    <circle cx="239.94" cy="289.87" r="1.39" fill="#30A14E" opacity="0.689"/>
    <circle cx="593.47" cy="372.95" r="1.40" fill="#30A14E" opacity="0.692"/>
    <circle cx="274.94" cy="551.45" r="1.41" fill="#30A14E" opacity="0.695"/>
    <circle cx="389.85" cy="202.80" r="1.42" fill="#30A14E" opacity="0.698"/>
    <circle cx="541.44" cy="539.29" r="1.43" fill="#3FB950" opacity="0.702"/>
    <circle cx="200.58" cy="392.79" r="1.44" fill="#3FB950" opacity="0.705"/>
    <circle cx="552.71" cy="269.93" r="1.45" fill="#3FB950" opacity="0.708"/>
    <circle cx="375.13" cy="600.08" r="1.45" fill="#3FB950" opacity="0.711"/>
    <circle cx="282.59" cy="234.83" r="1.46" fill="#3FB950" opacity="0.714"/>
    <circle cx="599.14" cy="442.70" r="1.47" fill="#3FB950" opacity="0.717"/>
    <circle cx="223.44" cy="503.55" r="1.48" fill="#3FB950" opacity="0.721"/>
    <circle cx="460.54" cy="203.41" r="1.49" fill="#3FB950" opacity="0.724"/>
    <circle cx="488.58" cy="586.76" r="1.50" fill="#3FB950" opacity="0.727"/>
    <circle cx="207.60" cy="321.75" r="1.51" fill="#3FB950" opacity="0.730"/>
    <circle cx="595.66" cy="327.39" r="1.52" fill="#3FB950" opacity="0.733"/>
    <circle cx="304.32" cy="586.59" r="1.53" fill="#3FB950" opacity="0.737"/>
    <circle cx="344.25" cy="196.83" r="1.53" fill="#3FB950" opacity="0.740"/>
    <circle cx="579.18" cy="512.67" r="1.54" fill="#3FB950" opacity="0.743"/>
    <circle cx="190.81" cy="438.12" r="1.55" fill="#3FB950" opacity="0.746"/>
    <circle cx="529.09" cy="229.81" r="1.56" fill="#3FB950" opacity="0.749"/>
    <circle cx="419.87" cy="613.66" r="1.57" fill="#3FB950" opacity="0.752"/>
    <circle cx="240.31" cy="255.23" r="1.58" fill="#3FB950" opacity="0.756"/>
    <circle cx="616.50" cy="398.88" r="1.59" fill="#3FB950" opacity="0.759"/>
    <circle cx="240.42" cy="547.72" r="1.60" fill="#3FB950" opacity="0.762"/>
    <circle cx="417.96" cy="182.33" r="1.61" fill="#3FB950" opacity="0.765"/>
    <circle cx="534.37" cy="573.39" r="1.61" fill="#3FB950" opacity="0.768"/>
    <circle cx="182.87" cy="362.75" r="1.62" fill="#3FB950" opacity="0.771"/>
    <circle cx="586.06" cy="280.29" r="1.63" fill="#3FB950" opacity="0.775"/>
    <circle cx="343.44" cy="614.86" r="1.64" fill="#3FB950" opacity="0.778"/>
    <circle cx="296.14" cy="202.54" r="1.65" fill="#3FB950" opacity="0.781"/>
    <circle cx="610.84" cy="475.76" r="1.66" fill="#3FB950" opacity="0.784"/>
    <circle cx="192.51" cy="486.91" r="1.67" fill="#3FB950" opacity="0.787"/>
    <circle cx="494.68" cy="194.92" r="1.68" fill="#3FB950" opacity="0.790"/>
    <circle cx="469.00" cy="616.05" r="1.69" fill="#3FB950" opacity="0.794"/>
    <circle cx="202.39" cy="286.85" r="1.70" fill="#3FB950" opacity="0.797"/>
    <circle cx="623.03" cy="349.75" r="1.70" fill="#3FB950" opacity="0.800"/>
    <circle cx="268.97" cy="588.45" r="1.71" fill="#3FB950" opacity="0.803"/>
    <circle cx="369.20" cy="171.64" r="1.72" fill="#3FB950" opacity="0.806"/>
    <circle cx="577.65" cy="548.16" r="1.73" fill="#3FB950" opacity="0.810"/>
    <circle cx="168.03" cy="410.80" r="1.74" fill="#3FB950" opacity="0.813"/>
    <circle cx="564.38" cy="234.71" r="1.75" fill="#3FB950" opacity="0.816"/>
    <circle cx="390.41" cy="633.80" r="1.76" fill="#3FB950" opacity="0.819"/>
    <circle cx="248.57" cy="220.44" r="1.77" fill="#3FB950" opacity="0.822"/>
    <circle cx="633.82" cy="430.22" r="1.78" fill="#3FB950" opacity="0.825"/>
    <circle cx="206.45" cy="536.16" r="1.78" fill="#3FB950" opacity="0.829"/>
    <circle cx="450.93" cy="168.01" r="1.79" fill="#3FB950" opacity="0.832"/>
    <circle cx="519.60" cy="606.22" r="1.80" fill="#3FB950" opacity="0.835"/>
    <circle cx="171.69" cy="328.47" r="1.81" fill="#3FB950" opacity="0.838"/>
    <circle cx="617.46" cy="298.16" r="1.82" fill="#3FB950" opacity="0.841"/>
    <circle cx="308.12" cy="622.78" r="1.83" fill="#3FB950" opacity="0.844"/>
    <circle cx="316.97" cy="172.86" r="1.84" fill="#3FB950" opacity="0.848"/>
    <circle cx="615.42" cy="511.79" r="1.85" fill="#58d68d" opacity="0.851"/>
    <circle cx="164.82" cy="463.30" r="1.86" fill="#58d68d" opacity="0.854"/>
    <circle cx="531.11" cy="193.74" r="1.86" fill="#58d68d" opacity="0.857"/>
    <circle cx="442.79" cy="641.49" r="1.87" fill="#58d68d" opacity="0.860"/>
    <circle cx="204.65" cy="250.33" r="1.88" fill="#58d68d" opacity="0.863"/>
    <circle cx="645.98" cy="378.33" r="1.89" fill="#58d68d" opacity="0.867"/>
    <circle cx="232.69" cy="582.75" r="1.90" fill="#58d68d" opacity="0.870"/>
    <circle cx="399.92" cy="151.39" r="1.91" fill="#58d68d" opacity="0.873"/>
    <circle cx="568.55" cy="583.88" r="1.92" fill="#58d68d" opacity="0.876"/>
    <circle cx="150.68" cy="378.20" r="1.93" fill="#58d68d" opacity="0.879"/>
    <circle cx="599.23" cy="247.16" r="1.94" fill="#58d68d" opacity="0.883"/>
    <circle cx="356.20" cy="648.09" r="1.95" fill="#58d68d" opacity="0.886"/>
    <circle cx="264.28" cy="186.79" r="1.95" fill="#58d68d" opacity="0.889"/>
    <circle cx="644.89" cy="465.75" r="1.96" fill="#58d68d" opacity="0.892"/>
    <circle cx="174.28" cy="517.32" r="1.97" fill="#58d68d" opacity="0.895"/>
    <circle cx="487.47" cy="160.26" r="1.98" fill="#58d68d" opacity="0.898"/>
    <circle cx="497.76" cy="636.61" r="1.99" fill="#58d68d" opacity="0.902"/>
    <circle cx="167.36" cy="291.22" r="2.00" fill="#58d68d" opacity="0.905"/>
    <circle cx="645.79" cy="322.82" r="2.01" fill="#58d68d" opacity="0.908"/>
    <circle cx="270.49" cy="623.64" r="2.02" fill="#58d68d" opacity="0.911"/>
    <circle cx="344.26" cy="146.83" r="2.03" fill="#58d68d" opacity="0.914"/>
    <circle cx="612.77" cy="549.48" r="2.03" fill="#58d68d" opacity="0.917"/>
    <circle cx="141.35" cy="433.60" r="2.04" fill="#58d68d" opacity="0.921"/>
    <circle cx="568.54" cy="199.90" r="2.05" fill="#58d68d" opacity="0.924"/>
    <circle cx="410.92" cy="662.18" r="2.06" fill="#58d68d" opacity="0.927"/>
    <circle cx="214.29" cy="213.49" r="2.07" fill="#58d68d" opacity="0.930"/>
    <circle cx="663.71" cy="412.11" r="2.08" fill="#58d68d" opacity="0.933"/>
    <circle cx="196.77" cy="569.71" r="2.09" fill="#58d68d" opacity="0.937"/>
    <circle cx="435.33" cy="136.81" r="2.10" fill="#58d68d" opacity="0.940"/>
    <circle cx="552.18" cy="618.57" r="2.11" fill="#58d68d" opacity="0.943"/>
    <circle cx="139.38" cy="341.46" r="2.11" fill="#58d68d" opacity="0.946"/>
    <circle cx="632.39" cy="266.74" r="2.12" fill="#58d68d" opacity="0.949"/>
    <circle cx="318.43" cy="655.98" r="2.13" fill="#58d68d" opacity="0.952"/>
    <circle cx="286.92" cy="155.45" r="2.14" fill="#58d68d" opacity="0.956"/>
    <circle cx="649.28" cy="504.23" r="2.15" fill="#58d68d" opacity="0.959"/>
    <circle cx="145.05" cy="491.79" r="2.16" fill="#58d68d" opacity="0.962"/>
    <circle cx="526.34" cy="159.43" r="2.17" fill="#58d68d" opacity="0.965"/>
    <circle cx="469.54" cy="663.47" r="2.18" fill="#58d68d" opacity="0.968"/>
    <circle cx="170.11" cy="252.29" r="2.19" fill="#58d68d" opacity="0.971"/>
    <circle cx="670.04" cy="353.50" r="2.20" fill="#58d68d" opacity="0.975"/>
    <circle cx="231.83" cy="617.29" r="2.20" fill="#58d68d" opacity="0.978"/>
    <circle cx="377.17" cy="125.43" r="2.21" fill="#58d68d" opacity="0.981"/>
    <circle cx="602.86" cy="587.55" r="2.22" fill="#58d68d" opacity="0.984"/>
    <circle cx="122.98" cy="398.74" r="2.23" fill="#58d68d" opacity="0.987"/>
    <circle cx="605.67" cy="213.31" r="2.24" fill="#58d68d" opacity="0.990"/>
    <circle cx="374.38" cy="677.33" r="2.25" fill="#58d68d" opacity="0.994"/>
    <circle cx="231.10" cy="177.61" r="2.26" fill="#58d68d" opacity="0.997"/>
    <circle cx="675.49" cy="450.03" r="2.27" fill="#58d68d" opacity="1.000"/>
    <circle cx="407.94" cy="386.95" r="0.46" fill="#161b22" opacity="0.403"/>
    <circle cx="404.18" cy="421.19" r="0.47" fill="#161b22" opacity="0.406"/>
    <circle cx="378.69" cy="384.32" r="0.47" fill="#161b22" opacity="0.410"/>
    <circle cx="430.37" cy="396.73" r="0.48" fill="#161b22" opacity="0.413"/>
    <circle cx="377.43" cy="425.64" r="0.49" fill="#161b22" opacity="0.416"/>
    <circle cx="399.26" cy="362.59" r="0.49" fill="#161b22" opacity="0.419"/>
    <circle cx="427.89" cy="429.25" r="0.50" fill="#161b22" opacity="0.422"/>
    <circle cx="356.89" cy="397.08" r="0.51" fill="#161b22" opacity="0.425"/>
    <circle cx="435.81" cy="371.40" r="0.51" fill="#161b22" opacity="0.429"/>
    <circle cx="392.53" cy="447.72" r="0.52" fill="#161b22" opacity="0.432"/>
    <circle cx="371.97" cy="357.80" r="0.53" fill="#161b22" opacity="0.435"/>
    <circle cx="451.36" cy="412.72" r="0.54" fill="#161b22" opacity="0.438"/>
    <circle cx="351.64" cy="426.35" r="0.54" fill="#161b22" opacity="0.441"/>
    <circle cx="418.54" cy="345.94" r="0.55" fill="#161b22" opacity="0.444"/>
    <circle cx="423.65" cy="454.23" r="0.56" fill="#161b22" opacity="0.448"/>
    <circle cx="344.16" cy="375.20" r="0.56" fill="#161b22" opacity="0.451"/>
    <circle cx="459.71" cy="379.96" r="0.57" fill="#161b22" opacity="0.454"/>
    <circle cx="368.62" cy="456.71" r="0.58" fill="#161b22" opacity="0.457"/>
    <circle cx="384.42" cy="335.27" r="0.58" fill="#161b22" opacity="0.460"/>
    <circle cx="456.65" cy="438.17" r="0.59" fill="#161b22" opacity="0.463"/>
    <circle cx="330.77" cy="410.37" r="0.60" fill="#161b22" opacity="0.467"/>
    <circle cx="445.08" cy="344.31" r="0.61" fill="#161b22" opacity="0.470"/>
    <circle cx="404.48" cy="473.12" r="0.61" fill="#161b22" opacity="0.473"/>
    <circle cx="346.17" cy="348.01" r="0.62" fill="#161b22" opacity="0.476"/>
    <circle cx="476.35" cy="402.01" r="0.63" fill="#161b22" opacity="0.479"/>
    <circle cx="341.20" cy="451.08" r="0.63" fill="#161b22" opacity="0.483"/>
    <circle cx="409.02" cy="321.14" r="0.64" fill="#161b22" opacity="0.486"/>
    <circle cx="447.47" cy="465.42" r="0.65" fill="#161b22" opacity="0.489"/>
    <circle cx="319.40" cy="383.54" r="0.65" fill="#161b22" opacity="0.492"/>
    <circle cx="471.75" cy="356.97" r="0.66" fill="#161b22" opacity="0.495"/>
    <circle cx="375.76" cy="481.52" r="0.67" fill="#161b22" opacity="0.498"/>
    <circle cx="362.21" cy="322.29" r="0.67" fill="#161b22" opacity="0.502"/>
    <circle cx="481.60" cy="432.27" r="0.68" fill="#161b22" opacity="0.505"/>
    <circle cx="316.80" cy="431.80" r="0.69" fill="#161b22" opacity="0.508"/>
    <circle cx="440.45" cy="319.19" r="0.70" fill="#161b22" opacity="0.511"/>
    <circle cx="425.11" cy="488.14" r="0.70" fill="#161b22" opacity="0.514"/>
    <circle cx="320.87" cy="351.31" r="0.71" fill="#161b22" opacity="0.517"/>
    <circle cx="492.47" cy="382.21" r="0.72" fill="#161b22" opacity="0.521"/>
    <circle cx="343.10" cy="476.56" r="0.72" fill="#161b22" opacity="0.524"/>
    <circle cx="390.12" cy="303.90" r="0.73" fill="#161b22" opacity="0.527"/>
    <circle cx="473.10" cy="464.98" r="0.74" fill="#161b22" opacity="0.530"/>
    <circle cx="301.02" cy="401.48" r="0.74" fill="#161b22" opacity="0.533"/>
    <circle cx="472.84" cy="331.24" r="0.75" fill="#161b22" opacity="0.537"/>
    <circle cx="392.65" cy="501.06" r="0.76" fill="#161b22" opacity="0.540"/>
    <circle cx="336.44" cy="319.62" r="0.77" fill="#161b22" opacity="0.543"/>
    <circle cx="502.28" cy="416.52" r="0.77" fill="#161b22" opacity="0.546"/>
    <circle cx="312.49" cy="457.52" r="0.78" fill="#161b22" opacity="0.549"/>
    <circle cx="425.94" cy="297.40" r="0.79" fill="#30A14E" opacity="0.552"/>
    <circle cx="450.70" cy="494.14" r="0.79" fill="#30A14E" opacity="0.556"/>
    <circle cx="298.00" cy="364.47" r="0.80" fill="#30A14E" opacity="0.559"/>
    <circle cx="500.20" cy="356.87" r="0.81" fill="#30A14E" opacity="0.562"/>
    <circle cx="354.81" cy="500.45" r="0.81" fill="#30A14E" opacity="0.565"/>
    <circle cx="365.14" cy="294.40" r="0.82" fill="#30A14E" opacity="0.568"/>
    <circle cx="497.95" cy="454.82" r="0.83" fill="#30A14E" opacity="0.571"/>
    <circle cx="289.73" cy="425.98" r="0.84" fill="#30A14E" opacity="0.575"/>
    <circle cx="464.34" cy="305.52" r="0.84" fill="#30A14E" opacity="0.578"/>
    <circle cx="416.53" cy="514.14" r="0.85" fill="#30A14E" opacity="0.581"/>
    <circle cx="309.94" cy="326.37" r="0.86" fill="#30A14E" opacity="0.584"/>
    <circle cx="517.15" cy="393.40" r="0.86" fill="#30A14E" opacity="0.587"/>
    <circle cx="317.39" cy="484.71" r="0.87" fill="#30A14E" opacity="0.590"/>
    <circle cx="403.73" cy="280.75" r="0.88" fill="#30A14E" opacity="0.594"/>
    <circle cx="478.43" cy="491.18" r="0.88" fill="#30A14E" opacity="0.597"/>
    <circle cx="279.61" cy="385.63" r="0.89" fill="#30A14E" opacity="0.600"/>
    <circle cx="499.26" cy="328.71" r="0.90" fill="#30A14E" opacity="0.603"/>
    <circle cx="374.77" cy="520.54" r="0.90" fill="#30A14E" opacity="0.606"/>
    <circle cx="336.70" cy="293.26" r="0.91" fill="#30A14E" opacity="0.610"/>
    <circle cx="519.67" cy="436.22" r="0.92" fill="#30A14E" opacity="0.613"/>
    <circle cx="286.45" cy="454.54" r="0.93" fill="#30A14E" opacity="0.616"/>
    <circle cx="447.23" cy="282.23" r="0.93" fill="#30A14E" opacity="0.619"/>
    <circle cx="445.05" cy="519.60" r="0.94" fill="#30A14E" opacity="0.622"/>
    <circle cx="285.18" cy="341.83" r="0.95" fill="#30A14E" opacity="0.625"/>
    <circle cx="524.83" cy="365.09" r="0.95" fill="#30A14E" opacity="0.629"/>
    <circle cx="331.06" cy="510.82" r="0.96" fill="#30A14E" opacity="0.632"/>
    <circle cx="375.81" cy="270.84" r="0.97" fill="#30A14E" opacity="0.635"/>
    <circle cx="505.79" cy="479.43" r="0.97" fill="#30A14E" opacity="0.638"/>
    <circle cx="267.47" cy="412.98" r="0.98" fill="#30A14E" opacity="0.641"/>
    <circle cx="489.54" cy="300.26" r="0.99" fill="#30A14E" opacity="0.644"/>
    <circle cx="401.36" cy="534.90" r="1.00" fill="#30A14E" opacity="0.648"/>
    <circle cx="307.29" cy="300.82" r="1.00" fill="#30A14E" opacity="0.651"/>
    <circle cx="536.22" cy="410.57" r="1.01" fill="#30A14E" opacity="0.654"/>
    <circle cx="291.75" cy="484.74" r="1.02" fill="#30A14E" opacity="0.657"/>
    <circle cx="422.72" cy="263.56" r="1.02" fill="#30A14E" opacity="0.660"/>
    <circle cx="475.87" cy="516.66" r="1.03" fill="#30A14E" opacity="0.663"/>
    <circle cx="264.44" cy="365.02" r="1.04" fill="#30A14E" opacity="0.667"/>
    <circle cx="524.32" cy="333.83" r="1.04" fill="#30A14E" opacity="0.670"/>
    <circle cx="352.75" cy="533.54" r="1.05" fill="#30A14E" opacity="0.673"/>
    <circle cx="344.31" cy="268.86" r="1.06" fill="#30A14E" opacity="0.676"/>
    <circle cx="530.39" cy="459.42" r="1.07" fill="#30A14E" opacity="0.679"/>
    <circle cx="262.94" cy="444.51" r="1.07" fill="#30A14E" opacity="0.683"/>
    <circle cx="471.39" cy="273.89" r="1.08" fill="#30A14E" opacity="0.686"/>
    <circle cx="432.72" cy="542.00" r="1.09" fill="#30A14E" opacity="0.689"/>
    <circle cx="279.30" cy="316.95" r="1.09" fill="#30A14E" opacity="0.692"/>
    <circle cx="545.89" cy="379.60" r="1.10" fill="#30A14E" opacity="0.695"/>
    <circle cx="305.70" cy="514.20" r="1.11" fill="#30A14E" opacity="0.698"/>
    <circle cx="392.35" cy="251.31" r="1.11" fill="#3FB950" opacity="0.702"/>
    <circle cx="506.63" cy="505.02" r="1.12" fill="#3FB950" opacity="0.705"/>
    <circle cx="249.65" cy="394.56" r="1.13" fill="#3FB950" opacity="0.708"/>
    <circle cx="515.12" cy="301.95" r="1.13" fill="#3FB950" opacity="0.711"/>
    <circle cx="381.25" cy="550.83" r="1.14" fill="#3FB950" opacity="0.714"/>
    <circle cx="311.50" cy="275.50" r="1.15" fill="#3FB950" opacity="0.717"/>
    <circle cx="550.10" cy="432.18" r="1.16" fill="#3FB950" opacity="0.721"/>
    <circle cx="266.93" cy="478.05" r="1.16" fill="#3FB950" opacity="0.724"/>
    <circle cx="445.63" cy="251.84" r="1.17" fill="#3FB950" opacity="0.727"/>
    <circle cx="466.76" cy="540.75" r="1.18" fill="#3FB950" opacity="0.730"/>
    <circle cx="255.01" cy="341.03" r="1.18" fill="#3FB950" opacity="0.733"/>
    <circle cx="547.44" cy="345.28" r="1.19" fill="#3FB950" opacity="0.737"/>
    <circle cx="327.90" cy="540.60" r="1.20" fill="#3FB950" opacity="0.740"/>
    <circle cx="357.99" cy="246.91" r="1.20" fill="#3FB950" opacity="0.743"/>
    <circle cx="535.00" cy="484.90" r="1.21" fill="#3FB950" opacity="0.746"/>
    <circle cx="242.39" cy="428.72" r="1.22" fill="#3FB950" opacity="0.749"/>
    <circle cx="497.25" cy="271.78" r="1.23" fill="#3FB950" opacity="0.752"/>
    <circle cx="414.97" cy="560.96" r="1.23" fill="#3FB950" opacity="0.756"/>
    <circle cx="279.70" cy="290.94" r="1.24" fill="#3FB950" opacity="0.759"/>
    <circle cx="563.09" cy="399.15" r="1.25" fill="#3FB950" opacity="0.762"/>
    <circle cx="279.79" cy="511.28" r="1.25" fill="#3FB950" opacity="0.765"/>
    <circle cx="413.53" cy="236.04" r="1.26" fill="#3FB950" opacity="0.768"/>
    <circle cx="501.21" cy="530.60" r="1.27" fill="#3FB950" opacity="0.771"/>
    <circle cx="236.46" cy="371.95" r="1.27" fill="#3FB950" opacity="0.775"/>
    <circle cx="540.13" cy="309.83" r="1.28" fill="#3FB950" opacity="0.778"/>
    <circle cx="357.40" cy="561.82" r="1.29" fill="#3FB950" opacity="0.781"/>
    <circle cx="321.78" cy="251.29" r="1.30" fill="#3FB950" opacity="0.784"/>
    <circle cx="558.78" cy="457.05" r="1.30" fill="#3FB950" opacity="0.787"/>
    <circle cx="243.74" cy="465.45" r="1.31" fill="#3FB950" opacity="0.790"/>
    <circle cx="471.29" cy="245.56" r="1.32" fill="#3FB950" opacity="0.794"/>
    <circle cx="451.96" cy="562.69" r="1.32" fill="#3FB950" opacity="0.797"/>
    <circle cx="251.20" cy="314.80" r="1.33" fill="#3FB950" opacity="0.800"/>
    <circle cx="567.93" cy="362.16" r="1.34" fill="#3FB950" opacity="0.803"/>
    <circle cx="301.34" cy="541.89" r="1.34" fill="#3FB950" opacity="0.806"/>
    <circle cx="376.81" cy="228.06" r="1.35" fill="#3FB950" opacity="0.810"/>
    <circle cx="533.76" cy="511.55" r="1.36" fill="#3FB950" opacity="0.813"/>
    <circle cx="225.36" cy="408.13" r="1.36" fill="#3FB950" opacity="0.816"/>
    <circle cx="523.75" cy="275.56" r="1.37" fill="#3FB950" opacity="0.819"/>
    <circle cx="392.78" cy="576.01" r="1.38" fill="#3FB950" opacity="0.822"/>
    <circle cx="286.00" cy="264.83" r="1.39" fill="#3FB950" opacity="0.825"/>
    <circle cx="576.02" cy="422.75" r="1.39" fill="#3FB950" opacity="0.829"/>
    <circle cx="254.30" cy="502.50" r="1.40" fill="#3FB950" opacity="0.832"/>
    <circle cx="438.34" cy="225.37" r="1.41" fill="#3FB950" opacity="0.835"/>
    <circle cx="490.02" cy="555.23" r="1.41" fill="#3FB950" opacity="0.838"/>
    <circle cx="228.15" cy="346.16" r="1.42" fill="#3FB950" opacity="0.841"/>
    <circle cx="563.68" cy="323.34" r="1.43" fill="#3FB950" opacity="0.844"/>
    <circle cx="330.84" cy="567.68" r="1.43" fill="#3FB950" opacity="0.848"/>
    <circle cx="337.50" cy="229.04" r="1.44" fill="#58d68d" opacity="0.851"/>
    <circle cx="562.13" cy="484.14" r="1.45" fill="#58d68d" opacity="0.854"/>
    <circle cx="223.00" cy="447.64" r="1.46" fill="#58d68d" opacity="0.857"/>
    <circle cx="498.68" cy="244.77" r="1.46" fill="#58d68d" opacity="0.860"/>
    <circle cx="432.21" cy="581.74" r="1.47" fill="#58d68d" opacity="0.863"/>
    <circle cx="252.99" cy="287.36" r="1.48" fill="#58d68d" opacity="0.867"/>
    <circle cx="585.11" cy="383.70" r="1.48" fill="#58d68d" opacity="0.870"/>
    <circle cx="274.09" cy="537.53" r="1.49" fill="#58d68d" opacity="0.873"/>
    <circle cx="399.94" cy="212.92" r="1.50" fill="#58d68d" opacity="0.876"/>
    <circle cx="526.84" cy="538.37" r="1.50" fill="#58d68d" opacity="0.879"/>
    <circle cx="212.39" cy="383.59" r="1.51" fill="#58d68d" opacity="0.883"/>
    <circle cx="549.91" cy="284.99" r="1.52" fill="#58d68d" opacity="0.886"/>
    <circle cx="367.04" cy="586.67" r="1.53" fill="#58d68d" opacity="0.889"/>
    <circle cx="297.88" cy="239.57" r="1.53" fill="#58d68d" opacity="0.892"/>
    <circle cx="584.26" cy="449.47" r="1.54" fill="#58d68d" opacity="0.895"/>
    <circle cx="230.17" cy="488.27" r="1.55" fill="#58d68d" opacity="0.898"/>
    <circle cx="465.81" cy="219.62" r="1.55" fill="#58d68d" opacity="0.902"/>
    <circle cx="473.55" cy="578.02" r="1.56" fill="#58d68d" opacity="0.905"/>
    <circle cx="224.97" cy="318.16" r="1.57" fill="#58d68d" opacity="0.908"/>
    <circle cx="584.92" cy="341.93" r="1.57" fill="#58d68d" opacity="0.911"/>
    <circle cx="302.57" cy="568.25" r="1.58" fill="#58d68d" opacity="0.914"/>
    <circle cx="358.07" cy="209.54" r="1.59" fill="#58d68d" opacity="0.917"/>
    <circle cx="560.06" cy="512.46" r="1.59" fill="#58d68d" opacity="0.921"/>
    <circle cx="205.42" cy="425.28" r="1.60" fill="#58d68d" opacity="0.924"/>
    <circle cx="526.78" cy="249.47" r="1.61" fill="#58d68d" opacity="0.927"/>
    <circle cx="408.22" cy="597.23" r="1.62" fill="#58d68d" opacity="0.930"/>
    <circle cx="260.30" cy="259.70" r="1.62" fill="#58d68d" opacity="0.933"/>
    <circle cx="598.37" cy="409.11" r="1.63" fill="#58d68d" opacity="0.937"/>
    <circle cx="247.12" cy="527.65" r="1.64" fill="#58d68d" opacity="0.940"/>
    <circle cx="426.57" cy="202.03" r="1.64" fill="#58d68d" opacity="0.943"/>
    <circle cx="514.47" cy="564.41" r="1.65" fill="#58d68d" opacity="0.946"/>
    <circle cx="203.97" cy="355.96" r="1.66" fill="#58d68d" opacity="0.949"/>
    <circle cx="574.79" cy="299.77" r="1.66" fill="#58d68d" opacity="0.952"/>
    <circle cx="338.64" cy="592.53" r="1.67" fill="#58d68d" opacity="0.956"/>
    <circle cx="314.95" cy="216.06" r="1.68" fill="#58d68d" opacity="0.959"/>
    <circle cx="587.49" cy="478.40" r="1.69" fill="#58d68d" opacity="0.962"/>
    <circle cx="208.25" cy="469.04" r="1.69" fill="#58d68d" opacity="0.965"/>
    <circle cx="495.02" cy="219.06" r="1.70" fill="#58d68d" opacity="0.968"/>
    <circle cx="452.30" cy="598.15" r="1.71" fill="#58d68d" opacity="0.971"/>
    <circle cx="227.11" cy="288.91" r="1.71" fill="#58d68d" opacity="0.975"/>
    <circle cx="603.09" cy="365.03" r="1.72" fill="#58d68d" opacity="0.978"/>
    <circle cx="273.53" cy="563.41" r="1.73" fill="#58d68d" opacity="0.981"/>
    <circle cx="382.83" cy="193.51" r="1.73" fill="#58d68d" opacity="0.984"/>
    <circle cx="552.56" cy="541.04" r="1.74" fill="#58d68d" opacity="0.987"/>
    <circle cx="191.68" cy="399.05" r="1.75" fill="#58d68d" opacity="0.990"/>
    <circle cx="554.67" cy="259.60" r="1.76" fill="#58d68d" opacity="0.994"/>
    <circle cx="380.74" cy="608.56" r="1.76" fill="#58d68d" opacity="0.997"/>
    <circle cx="272.99" cy="232.76" r="1.77" fill="#58d68d" opacity="1.000"/>
  </g>
  <!-- Golden rectangle overlay (6 levels) -->
  <g id="golden-rects">
    <rect x="40.00" y="177.51" width="720.00" height="444.98" fill="none" stroke="#58d68d" stroke-width="0.7" opacity="0.07"/>
    <rect x="177.51" y="262.49" width="444.98" height="275.02" fill="none" stroke="#58d68d" stroke-width="0.7" opacity="0.07"/>
    <rect x="262.49" y="315.02" width="275.02" height="169.97" fill="none" stroke="#58d68d" stroke-width="0.7" opacity="0.07"/>
    <rect x="315.02" y="347.48" width="169.97" height="105.05" fill="none" stroke="#58d68d" stroke-width="0.7" opacity="0.07"/>
    <rect x="347.48" y="367.54" width="105.05" height="64.92" fill="none" stroke="#58d68d" stroke-width="0.7" opacity="0.07"/>
    <rect x="367.54" y="379.94" width="64.92" height="40.12" fill="none" stroke="#58d68d" stroke-width="0.7" opacity="0.07"/>
  </g>
</svg>